# xmcd
#
# Track frame offsets: 
#        150
#        17317
#        29292
#        40567
#        54905
#        71357
#        85816
#        95897
#        110926
#        121904
#        136088
#        152650
#        165114
#        187917
#        204304
#        218771
#        233730
#        250145
#
# Disc length: 3566 seconds
#
# Revision: 1
# Processed by: cddbd v1.5.2PL0 Copyright (c) Steve Scherf et al.
# Submitted via: ExactAudioCopy v0.99pb4
#
DISCID=d90dec12
DTITLE=Smokestack Lightnin' - Modern Twang
DYEAR=2007
DGENRE=Country
TTITLE0=Soulbeat [Carl Perkins]
TTITLE1=Gimme More
TTITLE2=Unknown Stuntman [Lee Majors]
TTITLE3=Take A Lot Of Pride [Merle Haggard]
TTITLE4=Don't Think Twice [Bob Dylan]
TTITLE5=Shame [Monrose]
TTITLE6=Run For Your Life [Beatles, the]
TTITLE7=Hell's Angels [R. C. King]
TTITLE8=If I Really Bug You [José Feliciano]
TTITLE9=Solitary Man [Neil Diamond]
TTITLE10=Gentle On My Mind [John Hartford]
TTITLE11=Rockabilly Blues [Al Ferrier]
TTITLE12=Killing Time
TTITLE13=Take My Hand
TTITLE14=Girl On The Billboard [Del Reeves]
TTITLE15=Paradise City [Guns N' Roses]
TTITLE16=Ring Of Fire [Johnny Cash]
TTITLE17=Walk Away [Tom Waits]
EXTD=
EXTT0=
EXTT1=
EXTT2=
EXTT3=
EXTT4=
EXTT5=
EXTT6=
EXTT7=
EXTT8=
EXTT9=
EXTT10=
EXTT11=
EXTT12=
EXTT13=
EXTT14=
EXTT15=
EXTT16=
EXTT17=
PLAYORDER=
